# xmcd CD database file
#
# Track frame offsets:
#	150
#	33517
#	64669
#	80858
#	105774
#	124598
#	157638
#	176425
#	198212
#
# Disc length: 3029 seconds
#
# Revision: 1
# Processed by: cddbd v1.5.1PL0 Copyright (c) Steve Scherf et al.
# Submitted via: CDex 1.51
#
DISCID=620bd309
DTITLE=Allison McCray Weathersby Peterson - Triple Fret
DYEAR=2005
DGENRE=Blues
TTITLE0=Bottle Of Whiskey
TTITLE1=Bluesman
TTITLE2=Get Drunk And Pop The Trunk
TTITLE3=Don't Tie Me Down
TTITLE4=I'm Praying For You
TTITLE5=Where's Lucky
TTITLE6=Good To Me
TTITLE7=Ain't Nothing But The Truth
TTITLE8=Take It Slow
EXTD=YEAR: 2005
EXTT0=
EXTT1=
EXTT2=
EXTT3=
EXTT4=
EXTT5=
EXTT6=
EXTT7=
EXTT8=
PLAYORDER=
